<mxfile host="app.diagrams.net" modified="2024-02-19T07:47:27.823Z" agent="Mozilla/5.0 (Macintosh; Intel Mac OS X 10_15_7) AppleWebKit/537.36 (KHTML, like Gecko) Chrome/121.0.0.0 Safari/537.36" etag="769lWrz-V5MDb9gQIxY7" version="23.1.5" type="github">
  <diagram name="第 1 页" id="Ud2AOYjEWE9pMCXCxMQn">
    <mxGraphModel dx="1595" dy="816" grid="1" gridSize="10" guides="1" tooltips="1" connect="1" arrows="1" fold="1" page="1" pageScale="1" pageWidth="827" pageHeight="1169" math="0" shadow="0">
      <root>
        <mxCell id="0" />
        <mxCell id="1" parent="0" />
        <mxCell id="q372ufGhbptvwCZftNCy-3" value="" style="edgeStyle=orthogonalEdgeStyle;rounded=0;orthogonalLoop=1;jettySize=auto;html=1;" edge="1" parent="1" source="q372ufGhbptvwCZftNCy-1">
          <mxGeometry relative="1" as="geometry">
            <mxPoint x="410" y="320" as="targetPoint" />
          </mxGeometry>
        </mxCell>
        <mxCell id="q372ufGhbptvwCZftNCy-1" value="list接收到markerId" style="rounded=0;whiteSpace=wrap;html=1;" vertex="1" parent="1">
          <mxGeometry x="350" y="220" width="120" height="60" as="geometry" />
        </mxCell>
        <mxCell id="q372ufGhbptvwCZftNCy-7" value="" style="edgeStyle=orthogonalEdgeStyle;rounded=0;orthogonalLoop=1;jettySize=auto;html=1;entryX=1;entryY=0.5;entryDx=0;entryDy=0;" edge="1" parent="1" source="q372ufGhbptvwCZftNCy-4" target="q372ufGhbptvwCZftNCy-6">
          <mxGeometry relative="1" as="geometry" />
        </mxCell>
        <mxCell id="q372ufGhbptvwCZftNCy-4" value="获取markerComponent的纵轴偏移量" style="whiteSpace=wrap;html=1;rounded=0;" vertex="1" parent="1">
          <mxGeometry x="790" y="910" width="120" height="60" as="geometry" />
        </mxCell>
        <mxCell id="q372ufGhbptvwCZftNCy-6" value="进行动画" style="whiteSpace=wrap;html=1;rounded=0;" vertex="1" parent="1">
          <mxGeometry x="350" y="910" width="120" height="60" as="geometry" />
        </mxCell>
        <mxCell id="q372ufGhbptvwCZftNCy-14" value="" style="edgeStyle=orthogonalEdgeStyle;rounded=0;orthogonalLoop=1;jettySize=auto;html=1;entryX=0;entryY=0.5;entryDx=0;entryDy=0;" edge="1" parent="1" source="q372ufGhbptvwCZftNCy-11" target="q372ufGhbptvwCZftNCy-46">
          <mxGeometry relative="1" as="geometry">
            <mxPoint x="740" y="490" as="targetPoint" />
          </mxGeometry>
        </mxCell>
        <mxCell id="q372ufGhbptvwCZftNCy-15" value="是" style="edgeLabel;html=1;align=center;verticalAlign=middle;resizable=0;points=[];" vertex="1" connectable="0" parent="q372ufGhbptvwCZftNCy-14">
          <mxGeometry x="0.0545" y="-4" relative="1" as="geometry">
            <mxPoint as="offset" />
          </mxGeometry>
        </mxCell>
        <mxCell id="q372ufGhbptvwCZftNCy-17" value="" style="edgeStyle=orthogonalEdgeStyle;rounded=0;orthogonalLoop=1;jettySize=auto;html=1;entryX=0.5;entryY=0;entryDx=0;entryDy=0;" edge="1" parent="1" source="q372ufGhbptvwCZftNCy-11" target="q372ufGhbptvwCZftNCy-37">
          <mxGeometry relative="1" as="geometry">
            <mxPoint x="410" y="610" as="targetPoint" />
          </mxGeometry>
        </mxCell>
        <mxCell id="q372ufGhbptvwCZftNCy-18" value="否" style="edgeLabel;html=1;align=center;verticalAlign=middle;resizable=0;points=[];" vertex="1" connectable="0" parent="q372ufGhbptvwCZftNCy-17">
          <mxGeometry x="-0.2952" y="-1" relative="1" as="geometry">
            <mxPoint as="offset" />
          </mxGeometry>
        </mxCell>
        <mxCell id="q372ufGhbptvwCZftNCy-11" value="判断是否在当前视图中" style="rhombus;whiteSpace=wrap;html=1;rounded=0;" vertex="1" parent="1">
          <mxGeometry x="320" y="435" width="180" height="110" as="geometry" />
        </mxCell>
        <mxCell id="q372ufGhbptvwCZftNCy-35" value="&lt;font color=&quot;#cc0000&quot;&gt;如何判断？&lt;/font&gt;" style="text;html=1;align=center;verticalAlign=middle;resizable=0;points=[];autosize=1;strokeColor=none;fillColor=none;" vertex="1" parent="1">
          <mxGeometry x="235" y="475" width="80" height="30" as="geometry" />
        </mxCell>
        <mxCell id="q372ufGhbptvwCZftNCy-39" style="edgeStyle=orthogonalEdgeStyle;rounded=0;orthogonalLoop=1;jettySize=auto;html=1;entryX=0.5;entryY=0;entryDx=0;entryDy=0;" edge="1" parent="1" source="q372ufGhbptvwCZftNCy-37" target="q372ufGhbptvwCZftNCy-6">
          <mxGeometry relative="1" as="geometry" />
        </mxCell>
        <mxCell id="q372ufGhbptvwCZftNCy-37" value="解析position对应的element，用ComponentId找到markerComponent&lt;br&gt;并获取偏移量" style="whiteSpace=wrap;html=1;rounded=0;" vertex="1" parent="1">
          <mxGeometry x="300" y="690" width="220" height="80" as="geometry" />
        </mxCell>
        <mxCell id="q372ufGhbptvwCZftNCy-40" value="问题：1. scrollTo默认值和list解析的时序冲突问题如何解决" style="text;html=1;align=center;verticalAlign=middle;resizable=0;points=[];autosize=1;strokeColor=none;fillColor=none;" vertex="1" parent="1">
          <mxGeometry x="140" y="70" width="330" height="30" as="geometry" />
        </mxCell>
        <mxCell id="q372ufGhbptvwCZftNCy-41" value="scrollTo实现接收到position和componentId&lt;br&gt;方案在海龙那边" style="text;html=1;align=left;verticalAlign=middle;resizable=0;points=[];autosize=1;strokeColor=none;fillColor=none;" vertex="1" parent="1">
          <mxGeometry x="510" y="330" width="250" height="40" as="geometry" />
        </mxCell>
        <mxCell id="q372ufGhbptvwCZftNCy-44" style="edgeStyle=orthogonalEdgeStyle;rounded=0;orthogonalLoop=1;jettySize=auto;html=1;entryX=0.5;entryY=0;entryDx=0;entryDy=0;" edge="1" parent="1" source="q372ufGhbptvwCZftNCy-43" target="q372ufGhbptvwCZftNCy-11">
          <mxGeometry relative="1" as="geometry" />
        </mxCell>
        <mxCell id="q372ufGhbptvwCZftNCy-43" value="scrollTo中获取到markerId对应的position和componentId" style="whiteSpace=wrap;html=1;rounded=0;" vertex="1" parent="1">
          <mxGeometry x="330" y="320" width="160" height="60" as="geometry" />
        </mxCell>
        <mxCell id="q372ufGhbptvwCZftNCy-48" style="edgeStyle=orthogonalEdgeStyle;rounded=0;orthogonalLoop=1;jettySize=auto;html=1;" edge="1" parent="1" source="q372ufGhbptvwCZftNCy-46" target="q372ufGhbptvwCZftNCy-47">
          <mxGeometry relative="1" as="geometry" />
        </mxCell>
        <mxCell id="q372ufGhbptvwCZftNCy-46" value="通过position找到对应rootComponent" style="whiteSpace=wrap;html=1;" vertex="1" parent="1">
          <mxGeometry x="790" y="460" width="120" height="60" as="geometry" />
        </mxCell>
        <mxCell id="q372ufGhbptvwCZftNCy-49" style="edgeStyle=orthogonalEdgeStyle;rounded=0;orthogonalLoop=1;jettySize=auto;html=1;entryX=0.5;entryY=0;entryDx=0;entryDy=0;" edge="1" parent="1" source="q372ufGhbptvwCZftNCy-47" target="q372ufGhbptvwCZftNCy-4">
          <mxGeometry relative="1" as="geometry">
            <mxPoint x="890" y="870" as="targetPoint" />
          </mxGeometry>
        </mxCell>
        <mxCell id="q372ufGhbptvwCZftNCy-47" value="通过componentId找到命中锚点的组件，计算偏移量" style="whiteSpace=wrap;html=1;" vertex="1" parent="1">
          <mxGeometry x="790" y="700" width="120" height="60" as="geometry" />
        </mxCell>
        <mxCell id="q372ufGhbptvwCZftNCy-50" value="&lt;font color=&quot;#cc0000&quot;&gt;如何用position转换成RecyclerView的index？&lt;/font&gt;" style="text;html=1;align=center;verticalAlign=middle;resizable=0;points=[];autosize=1;strokeColor=none;fillColor=none;" vertex="1" parent="1">
          <mxGeometry x="925" y="475" width="260" height="30" as="geometry" />
        </mxCell>
      </root>
    </mxGraphModel>
  </diagram>
</mxfile>
